<svg width="20" height="20" viewBox="0 0 20 20" fill="none" xmlns="http://www.w3.org/2000/svg">
<g clip-path="url(#clip0)">
<path d="M19.7873 8.12751L10.3069 1.18622C10.1241 1.05239 9.87578 1.05239 9.69304 1.18622L0.212657 8.12751C-0.0189056 8.29708 -0.0692181 8.62223 0.100352 8.8538C0.269922 9.08536 0.595118 9.13559 0.826641 8.9661L9.99996 2.24954L19.1733 8.96606C19.2658 9.03383 19.3733 9.06645 19.4798 9.06645C19.6398 9.06645 19.7977 8.99282 19.8995 8.85376C20.0691 8.62223 20.0188 8.29708 19.7873 8.12751Z" fill="black" fill-opacity="0.5"/>
<path d="M17.2753 9.08371C16.9883 9.08371 16.7556 9.31637 16.7556 9.60336V17.8748H12.5985V13.3597C12.5985 11.9269 11.4328 10.7613 10.0001 10.7613C8.56735 10.7613 7.40164 11.927 7.40164 13.3597V17.8748H3.2445V9.6034C3.2445 9.31641 3.0118 9.08375 2.72485 9.08375C2.4379 9.08375 2.2052 9.31641 2.2052 9.6034V18.3945C2.2052 18.6815 2.4379 18.9142 2.72485 18.9142H7.92129C8.19457 18.9142 8.41821 18.703 8.43891 18.435C8.44016 18.4229 8.44094 18.4096 8.44094 18.3945V13.3598C8.44094 12.5 9.14036 11.8006 10.0001 11.8006C10.8598 11.8006 11.5592 12.5001 11.5592 13.3598V18.3945C11.5592 18.4095 11.56 18.4225 11.5613 18.4345C11.5817 18.7028 11.8054 18.9142 12.0789 18.9142H17.2753C17.5623 18.9142 17.795 18.6815 17.795 18.3945V9.6034C17.7949 9.31637 17.5623 9.08371 17.2753 9.08371Z" fill="black" fill-opacity="0.5"/>
</g>
<defs>
<clipPath id="clip0">
<rect width="20" height="20" fill="white"/>
</clipPath>
</defs>
</svg>
