<svg width="20" height="20" viewBox="0 0 20 20" fill="none" xmlns="http://www.w3.org/2000/svg">
<path d="M19.828 9.12602L9.99981 0L0.172001 9.12602C0.0335615 9.25486 0.0253374 9.47177 0.154182 9.61055C0.282341 9.74899 0.499937 9.75688 0.638376 9.62837L1.7757 8.57226V20H18.2239V8.57192L19.3612 9.62803C19.427 9.68937 19.511 9.71952 19.5946 9.71952C19.6868 9.71952 19.7783 9.68286 19.8454 9.61021C19.9746 9.47177 19.9664 9.25486 19.828 9.12602ZM17.5386 19.3147H2.46104V7.93558L9.99981 0.93515L17.5386 7.93558V19.3147Z" fill="black" fill-opacity="0.5"/>
<path d="M4.51709 12.1186H9.31448V7.32117H4.51709V12.1186ZM5.20243 8.00651H8.62914V11.4332H5.20243V8.00651Z" fill="black" fill-opacity="0.5"/>
<path d="M15.4825 7.32117H10.6851V12.1186H15.4825V7.32117ZM14.7972 11.4332H11.3705V8.00651H14.7972V11.4332Z" fill="black" fill-opacity="0.5"/>
<path d="M4.51709 18.2866H9.31448V13.4892H4.51709V18.2866ZM5.20243 14.1746H8.62914V17.6013H5.20243V14.1746Z" fill="black" fill-opacity="0.5"/>
<path d="M15.4825 13.4892H10.6851V18.2866H15.4825V13.4892ZM14.7972 17.6013H11.3705V14.1746H14.7972V17.6013Z" fill="black" fill-opacity="0.5"/>
</svg>
