<svg width="20" height="20" viewBox="0 0 20 20" fill="none" xmlns="http://www.w3.org/2000/svg">
<path d="M5.30898 18.0487C5.17363 17.265 4.48863 16.6667 3.66664 16.6667C3.01031 16.6667 2.44164 17.048 2.16996 17.6007C2.11629 17.5623 2.05895 17.5283 1.99996 17.4977V12C1.99996 11.816 1.85063 11.6667 1.66664 11.6667C1.48266 11.6667 1.33332 11.816 1.33332 12V17.3333C0.598008 17.3333 0 17.9313 0 18.6667C0 19.402 0.598008 20 1.33332 20H5C5.55133 20 6 19.5513 6 19C6 18.5563 5.70965 18.1793 5.30898 18.0487ZM5 19.3333H1.33332C0.965664 19.3333 0.666641 19.0343 0.666641 18.6666C0.666641 18.2989 0.965664 18 1.33332 18C1.64434 18 1.92066 18.1807 2.02098 18.45C2.0773 18.601 2.23332 18.69 2.39266 18.6613C2.55133 18.6327 2.66664 18.4946 2.66664 18.3333C2.66664 17.782 3.11531 17.3333 3.66664 17.3333C4.21797 17.3333 4.66664 17.782 4.66664 18.3333C4.66664 18.5173 4.81598 18.6666 4.99996 18.6666C5.18363 18.6666 5.33328 18.8163 5.33328 19C5.33328 19.1836 5.18367 19.3333 5 19.3333Z" fill="black" fill-opacity="0.5"/>
<path d="M19.6667 2.66668H13.3333C13.1493 2.66668 13 2.81602 13 3C13 3.18398 13.1493 3.33332 13.3333 3.33332H19.3333V10.5287L10.2357 1.43102C10.1703 1.36566 10.0846 1.33336 9.99898 1.33336C9.91332 1.33336 9.82766 1.3657 9.7623 1.43102L0.66668 10.5283V3.33332H4.33336C4.51734 3.33332 4.66668 3.18398 4.66668 3V1.66668C4.66668 1.4827 4.51734 1.33336 4.33336 1.33336H4V0.66668H6V1.33336H5.66668C5.4827 1.33336 5.33336 1.4827 5.33336 1.66668V3C5.33336 3.18398 5.4827 3.33332 5.66668 3.33332H6.66668C6.85066 3.33332 7 3.18398 7 3C7 2.81602 6.85066 2.66668 6.66668 2.66668H6V2H6.33332C6.5173 2 6.66664 1.85066 6.66664 1.66668V0.33332C6.66664 0.149336 6.5173 0 6.33332 0H3.66668C3.4827 0 3.33336 0.149336 3.33336 0.33332V1.66664C3.33336 1.85063 3.4827 1.99996 3.66668 1.99996H4V2.66664H0.33332C0.245 2.66664 0.16 2.70164 0.0976562 2.7643C0.035 2.82668 0 2.91168 0 3L0.00132813 11.3333C0.00132813 11.4683 0.0826563 11.5896 0.207344 11.6413C0.248672 11.6583 0.29168 11.6667 0.334688 11.6667C0.42168 11.6667 0.507031 11.6327 0.570352 11.569L9.99898 2.13699L19.431 11.569C19.4946 11.6327 19.58 11.6666 19.6666 11.6666C19.7096 11.6666 19.753 11.6583 19.7943 11.6413C19.9186 11.5896 20 11.468 20 11.3333V3C20 2.81602 19.8507 2.66668 19.6667 2.66668Z" fill="black" fill-opacity="0.5"/>
<path d="M18.6667 17.3333V12C18.6667 11.816 18.5173 11.6667 18.3334 11.6667C18.1494 11.6667 18 11.816 18 12V17.4977C17.9411 17.5283 17.8837 17.5623 17.83 17.6007C17.5584 17.048 16.9897 16.6667 16.3334 16.6667C15.5114 16.6667 14.8264 17.265 14.691 18.0487C14.2904 18.1793 14 18.5563 14 19C14 19.1177 14.024 19.2287 14.0617 19.3333H8.33332C8.14934 19.3333 8 19.4827 8 19.6666C8 19.8506 8.14934 20 8.33332 20H15H16.3333H18.6666C19.402 20 20 19.402 20 18.6667C20 17.9314 19.402 17.3333 18.6667 17.3333ZM18.6667 19.3333H16.3334H15C14.8163 19.3333 14.6667 19.1837 14.6667 19C14.6667 18.8163 14.8163 18.6667 15 18.6667C15.184 18.6667 15.3333 18.5173 15.3333 18.3334C15.3333 17.782 15.782 17.3334 16.3333 17.3334C16.8846 17.3334 17.3333 17.782 17.3333 18.3334C17.3333 18.4947 17.4487 18.6327 17.6073 18.6614C17.7656 18.6903 17.9227 18.601 17.979 18.45C18.0793 18.1807 18.3557 18 18.6666 18C19.0343 18 19.3333 18.299 19.3333 18.6667C19.3333 19.0344 19.0343 19.3333 18.6667 19.3333Z" fill="black" fill-opacity="0.5"/>
<path d="M11.3333 6.66668C11.3333 5.93133 10.7353 5.33336 10 5.33336C9.26466 5.33336 8.66669 5.93137 8.66669 6.66668C8.66669 7.40199 9.26466 8 10 8C10.7354 8 11.3333 7.40199 11.3333 6.66668ZM9.33333 6.66668C9.33333 6.29902 9.63231 6 10 6C10.3677 6 10.6667 6.29898 10.6667 6.66668C10.6667 7.03434 10.3677 7.33336 10 7.33336C9.63235 7.33332 9.33333 7.03434 9.33333 6.66668Z" fill="black" fill-opacity="0.5"/>
<path d="M16.3333 11.3333H13.6666C13.4827 11.3333 13.3333 11.4827 13.3333 11.6666V15.3333H13C12.816 15.3333 12.6667 15.4827 12.6667 15.6666C12.6667 15.8506 12.816 16 13 16H17C17.184 16 17.3333 15.8506 17.3333 15.6666C17.3333 15.4827 17.184 15.3333 17 15.3333H16.6667V11.6666C16.6667 11.4827 16.5173 11.3333 16.3333 11.3333ZM16 15.3333H14V14H16V15.3333ZM16 13.3333H14V12H16V13.3333Z" fill="black" fill-opacity="0.5"/>
<path d="M13.3334 18.3333C13.3334 18.1493 13.184 18 13 18H12V11.6667C12 11.4827 11.8507 11.3334 11.6667 11.3334H8.33339C8.1494 11.3334 8.00007 11.4827 8.00007 11.6667V18H7.00007C6.81608 18 6.66675 18.1493 6.66675 18.3333V19.6666C6.66675 19.8506 6.81608 20 7.00007 20C7.18405 20 7.33339 19.8506 7.33339 19.6666V18.6666H13C13.184 18.6667 13.3334 18.5173 13.3334 18.3333ZM11.3334 14.6667H11C10.816 14.6667 10.6667 14.816 10.6667 15C10.6667 15.184 10.816 15.3333 11 15.3333H11.3334V18H8.66667V12H11.3334V14.6667Z" fill="black" fill-opacity="0.5"/>
<path d="M6.33333 11.3333H3.66669C3.4827 11.3333 3.33337 11.4827 3.33337 11.6666V15.3333H3.00001C2.81602 15.3333 2.66669 15.4827 2.66669 15.6666C2.66669 15.8506 2.81602 16 3.00001 16H7.00001C7.18399 16 7.33333 15.8507 7.33333 15.6667C7.33333 15.4827 7.18399 15.3334 7.00001 15.3334H6.66669V11.6667C6.66669 11.4827 6.51735 11.3333 6.33333 11.3333ZM6.00001 15.3333H4.00001V14H6.00001V15.3333ZM6.00001 13.3333H4.00001V12H6.00001V13.3333Z" fill="black" fill-opacity="0.5"/>
</svg>
